<svg width="185" height="48" fill="none" xmlns="http://www.w3.org/2000/svg"><path d="M67.214 44.785V4.18h11.62v6.314s4.66-4.844 9.31-6.22c3.921-1.16 10.38-.501 12.888.366a52.162 52.162 0 0 0-3.453 4.637 32.597 32.597 0 0 0-2.895 5.282c-2.762.014-5.771.404-8.16 1.694-2.868 1.55-6.34 5.215-6.34 5.215v23.31l-12.97.007ZM119.955 45.625c-3.65 0-6.95-.563-9.787-1.676-2.836-1.112-5.204-2.621-7.09-4.505a19.369 19.369 0 0 1-4.331-6.532 20.803 20.803 0 0 1-1.49-7.8c0-3.911.875-7.55 2.6-10.809 1.708-3.228 4.261-5.867 7.587-7.822 3.325-1.956 7.543-2.969 12.515-2.969 4.973 0 9.181.99 12.516 2.941 3.335 1.952 5.88 4.536 7.586 7.692 1.72 3.184 2.592 6.703 2.592 10.457 0 .775-.039 1.575-.119 2.378-.031.321-.064.628-.1.922h-31.323l.12 1.613c.13 1.791.684 3.293 1.634 4.462a8.053 8.053 0 0 0 3.503 2.496c1.309.485 2.694.732 4.091.731 1.843 0 3.612-.391 6.209-2.524l13.848.016c-2.004 2.998-3.234 4.47-4.433 5.496-1.955 1.666-4.302 2.999-6.973 3.974-2.671.975-5.764 1.459-9.155 1.459Zm-.251-33.776c-1.575 0-3.005.321-4.249.952a8.13 8.13 0 0 0-3.083 2.704c-.782 1.14-1.271 2.53-1.467 4.132l-.206 1.683h18.012l-.207-1.683c-.197-1.599-.69-2.99-1.467-4.132a8.141 8.141 0 0 0-3.08-2.703c-1.252-.632-2.677-.953-4.253-.953ZM155.843 44.785 141.995 4.18h13.134l9.043 30.985 9.137-30.985h11.627l-13.848 40.605h-15.245ZM26.294 24.23h5.485a8.408 8.408 0 1 0-8.408 8.539h21.437a22.954 22.954 0 0 1-1.51 3.108H23.37a11.517 11.517 0 1 1 11.517-11.518h5.476a16.998 16.998 0 0 0-20.32-16.675 17 17 0 0 0 3.327 33.674h15.507A23.194 23.194 0 0 1 .593 29.213a23.191 23.191 0 1 1 45.64-1.935H23.371a2.924 2.924 0 1 1 2.92-3.052l.003.005Z" fill="#000"/></svg>